<?xml version="1.0" encoding="UTF-8" standalone="no"?><!DOCTYPE svg PUBLIC "-//W3C//DTD SVG 1.1//EN" "http://www.w3.org/Graphics/SVG/1.1/DTD/svg11.dtd"><svg width="100%" height="100%" viewBox="0 0 400 165" version="1.1" xmlns="http://www.w3.org/2000/svg" xmlns:xlink="http://www.w3.org/1999/xlink" xml:space="preserve" xmlns:serif="http://www.serif.com/" style="fill-rule:evenodd;clip-rule:evenodd;stroke-linejoin:round;stroke-miterlimit:2;"><g id="helcraw-water-logo"><g id="emblem"><path id="w" d="M275.743,88.391C276.022,88.686 276.3,88.982 276.579,89.278C276.827,89.143 277.168,89.542 277.416,89.407C277.751,89.225 278.322,85.791 278.375,85.471C279.065,81.323 280.714,77.17 281.218,74.43C282.057,69.871 282.617,70.031 283.557,65.511C284.005,63.356 285.035,59.884 285.179,59.399C286.444,55.136 286.589,53.556 287.488,50.496C288.969,45.46 288.628,45.388 290.173,40.392C291.248,36.915 291.079,36.884 292.028,33.384C293.63,27.477 294.038,25.232 295.449,20.484C296.178,18.031 296.1,18.01 295.917,15.464C295.763,13.333 295.475,13.412 294.487,11.508C293.03,8.699 288.83,8.189 288.82,8.182C287.987,7.541 288.605,6.735 288.68,6.636C289.233,5.914 295.211,6.088 296.5,6.089C307.556,6.096 307.548,6.424 308.507,6.365C309.188,6.323 309.862,6.199 310.543,6.164C310.744,6.153 312.842,6.044 312.658,7.531C312.513,8.704 310.295,8.074 307.416,10.394C307.151,10.608 305.109,12.253 304.475,13.482C304.152,14.108 304.116,14.061 303.708,14.635C302.438,16.422 300.046,22.994 299.692,24.555C298.665,29.09 297.535,30.945 296.784,34.575C296.15,37.641 295.182,39.417 294.748,41.556C294.652,42.031 294.061,44.942 293.276,47.427C291.654,52.563 291.767,54.07 290.344,58.453C289.368,61.464 289.683,61.532 288.831,64.584C287.826,68.187 286.091,75.275 285.994,75.629C284.483,81.125 283.887,83.84 283.729,84.56C283.026,87.766 282.391,88.356 281.573,92.518C280.8,96.448 280.475,96.338 279.846,98.603C278.903,101.999 279.068,102.031 277.669,106.561C275.952,112.123 276.058,112.144 275.903,112.625C275.496,113.896 274.89,117.188 272.494,117.439C269.917,117.708 269.123,115.464 268.786,114.399C267.831,111.378 267.88,111.379 266.784,108.393C265.688,105.408 265.935,105.345 264.86,102.364C264.002,99.985 264.043,99.987 263.295,97.564C262.827,96.051 261.086,91.684 260.8,90.421C260.048,87.107 259.266,86.396 258.761,84.42C257.428,79.205 256.78,79.422 255.558,74.484C255.038,72.382 254.182,71.042 253.757,69.421C252.261,63.711 251.639,63.915 250.549,59.487C250.451,59.088 246.573,47.606 246.525,47.49C245.511,45.007 245.709,44.956 244.856,42.398C243.177,37.368 243.602,37.032 243.15,36.98C242.883,36.948 242.714,37.298 242.476,37.425C242.265,37.538 241.926,37.487 241.811,37.698C241.522,38.225 241.505,38.86 241.369,39.446C240.014,45.288 239.331,45.381 238.499,48.5C237.59,51.905 236.368,54.153 235.749,56.578C234.929,59.79 233.982,61.694 233.964,61.779C233.927,61.945 234.07,62.124 234.02,62.287C233.971,62.446 233.782,62.524 233.691,62.663C233.557,62.869 233.564,63.197 233.348,63.314C233.123,63.437 232.834,63.294 232.579,63.267C231.601,63.163 231.766,62.79 231.61,62.413C230.416,59.533 230.377,59.406 231.373,56.449C232.035,54.483 232.037,54.502 232.625,52.53C233.175,50.686 235.048,45.258 235.238,44.428C235.681,42.495 243.566,16.961 244.148,15.363C245.296,12.209 246.35,8.304 246.621,7.571C246.677,7.422 247.195,6.025 248.406,6.675C248.881,6.931 249.252,8.413 249.293,8.576C249.478,9.313 250.779,12.439 251.295,14.551C251.315,14.636 254.169,23.28 254.274,23.57C255.198,26.109 258.632,36.631 259.318,38.555C261.071,43.472 260.848,43.536 262.663,48.433C263.927,51.845 263.691,51.906 264.915,55.346C267.254,61.922 267.107,61.947 269.374,68.537C270.718,72.443 270.672,72.436 271.912,76.362C272.232,77.374 272.937,78.453 273.737,81.426C274.683,84.942 275.073,84.818 275.743,88.391Z" style="fill:#193b69;fill-opacity:0.99;"/><path id="drop" d="M222.15,52.812C222.328,52.991 222.394,53.261 222.572,53.439C223.042,53.91 223.313,53.772 223.701,55.432C224.12,57.23 224.503,57.027 225.109,57.807C225.272,58.017 225.363,58.275 225.473,58.516C225.596,58.784 225.654,59.083 225.808,59.335C225.898,59.482 226.09,59.545 226.191,59.686C226.355,59.916 226.41,60.216 226.59,60.433C226.916,60.826 227.104,60.673 227.451,61.53C227.562,61.805 227.603,62.11 227.752,62.366C227.836,62.509 228.046,62.546 228.131,62.688C228.346,63.049 228.779,65.344 229.748,66.286C229.911,66.444 230.172,66.482 230.322,66.652C230.504,66.858 230.54,67.163 230.712,67.377C230.824,67.517 231.101,67.514 231.154,67.686C231.212,67.877 230.91,68.072 230.98,68.259C231.044,68.43 231.371,68.359 231.465,68.516C231.629,68.786 231.62,69.129 231.691,69.437C232.201,71.663 233.262,71.222 233.677,73.459C233.737,73.782 233.745,74.113 233.791,74.438C234.091,76.547 235.286,77.413 235.656,79.468C235.771,80.106 235.76,80.769 235.931,81.394C236.016,81.704 236.704,82.215 236.722,84.491C236.786,92.441 236.684,92.803 236.49,93.497C236.421,93.744 235.455,96.241 234.449,99.479C234.115,100.554 233.923,100.446 233.51,101.505C233.402,101.782 233.314,102.072 233.163,102.328C233.083,102.465 232.898,102.524 232.827,102.665C232.561,103.195 232.445,103.794 232.164,104.317C232.081,104.47 231.85,104.5 231.76,104.65C231.609,104.901 231.641,105.244 231.466,105.479C231.338,105.652 231.044,105.635 230.907,105.801C230.73,106.015 230.756,106.357 230.57,106.563C230.41,106.741 230.099,106.717 229.93,106.887C229.748,107.068 229.746,107.381 229.569,107.566C229.402,107.739 229.109,107.747 228.94,107.918C228.419,108.447 228.706,108.636 228.172,109.169C228.001,109.339 227.742,109.404 227.572,109.575C227.404,109.743 227.346,110.001 227.176,110.167C227.001,110.338 226.734,110.394 226.559,110.564C226.212,110.901 226.366,111.089 225.482,111.472C225.213,111.588 224.914,111.638 224.662,111.788C224.517,111.875 224.471,112.086 224.321,112.164C223.431,112.629 223.352,112.461 222.311,113.181C222.077,113.343 221.784,113.412 221.566,113.594C221.532,113.622 221.324,114.359 219.542,114.686C217.975,114.973 217.951,114.816 216.445,115.353C213.451,116.421 212.997,117.009 204.493,116.814C199.339,116.696 199.53,115.681 194.454,114.711C194.307,114.683 193.246,114.48 192.669,114.156C192.534,114.08 192.483,113.898 192.348,113.821C191.552,113.37 191.453,113.625 190.682,113.154C190.541,113.068 190.489,112.873 190.347,112.789C190.092,112.638 189.765,112.632 189.52,112.467C189.36,112.358 189.331,112.117 189.177,111.999C188.503,111.484 188.384,111.704 187.694,111.197C187.546,111.088 187.461,110.905 187.306,110.807C187.064,110.656 186.75,110.637 186.524,110.464C186.352,110.333 186.323,110.066 186.155,109.928C185.949,109.758 185.637,109.748 185.438,109.569C185.262,109.411 185.246,109.124 185.077,108.959C184.542,108.436 184.36,108.703 183.833,108.17C183.664,107.998 183.598,107.741 183.427,107.57C183.259,107.402 183.002,107.34 182.835,107.171C182.664,106.998 182.601,106.738 182.432,106.564C182.115,106.238 181.932,106.404 181.525,105.484C181.406,105.217 181.351,104.92 181.202,104.668C181.117,104.523 180.916,104.468 180.836,104.32C180.517,103.726 180.709,103.633 179.801,102.321C178.882,100.992 178.596,101.117 178.322,99.539C178.265,99.215 178.262,98.884 178.217,98.558C177.951,96.629 177.403,96.765 177.208,94.526C177.056,92.782 177.075,92.788 177.019,92.596C176.907,92.21 176.664,91.871 176.54,91.488C175.796,89.17 176.969,87.218 177.179,84.476C177.385,81.784 178.039,81.868 178.209,79.463C178.23,79.155 178.429,76.338 178.833,75.659C178.911,75.529 179.113,75.506 179.189,75.374C179.647,74.578 179.384,74.479 179.846,73.672C179.921,73.539 180.096,73.479 180.162,73.342C180.569,72.499 181.789,68.796 181.855,68.687C181.941,68.546 182.153,68.509 182.227,68.362C182.499,67.827 182.603,67.218 182.873,66.682C182.945,66.541 183.155,66.509 183.231,66.371C183.671,65.569 183.367,65.45 183.861,64.675C183.948,64.538 184.153,64.507 184.241,64.372C184.404,64.124 184.422,63.797 184.594,63.556C184.706,63.398 184.946,63.369 185.064,63.216C185.589,62.535 185.356,62.425 185.862,61.71C186.264,61.141 186.312,61.185 186.595,60.549C186.717,60.275 186.786,59.974 186.947,59.721C187.035,59.583 187.234,59.543 187.322,59.405C187.48,59.156 187.499,58.834 187.665,58.59C187.769,58.439 188.049,58.433 188.104,58.258C188.16,58.079 187.872,57.897 187.937,57.722C188,57.553 188.304,57.598 188.404,57.448C188.567,57.204 188.512,56.852 188.68,56.61C188.793,56.445 189.074,56.463 189.196,56.304C189.717,55.623 189.37,55.46 189.883,54.761C189.997,54.605 190.227,54.56 190.337,54.401C190.502,54.16 190.515,53.835 190.683,53.596C190.786,53.449 191.069,53.455 191.122,53.283C191.182,53.09 190.896,52.889 190.962,52.698C191.018,52.538 191.314,52.596 191.408,52.455C191.572,52.208 191.516,51.855 191.685,51.612C191.799,51.447 192.082,51.466 192.204,51.307C192.376,51.081 192.352,50.744 192.521,50.516C192.641,50.353 192.932,50.362 193.032,50.185C193.314,49.688 193.346,49.075 193.621,48.573C193.713,48.404 193.981,48.398 194.096,48.242C194.605,47.55 194.344,47.432 194.844,46.712C194.944,46.569 195.139,46.499 195.216,46.342C195.478,45.811 195.578,45.21 195.847,44.682C195.922,44.534 196.14,44.501 196.225,44.358C196.376,44.101 196.363,43.764 196.533,43.519C196.643,43.361 196.936,43.383 197.023,43.211C197.086,43.084 196.831,42.935 196.892,42.807C196.981,42.617 197.258,42.586 197.392,42.424C197.572,42.206 197.651,41.92 197.813,41.689C199.309,39.548 199.395,37.801 199.563,37.532C199.662,37.372 199.972,37.418 200.05,37.247C200.115,37.103 199.832,36.944 199.894,36.798C200.112,36.286 200.78,36.653 201.294,34.439C201.603,33.105 203.641,29.119 204.194,26.448C204.68,24.102 204.628,24.085 204.847,23.657C205.153,23.06 205.208,23.099 205.448,22.477C206.023,20.992 206.145,21.023 206.187,19.441C206.191,19.284 206.231,17.784 206.509,17.51C207.381,16.651 208.36,17.422 208.485,17.52C208.685,17.678 208.707,17.981 208.844,18.197C209.957,19.942 209.437,20.132 209.9,21.384C210.046,21.779 210.338,22.11 210.487,22.505C210.818,23.381 210.728,26.661 210.965,27.36C211.1,27.757 211.357,28.104 211.516,28.493C211.635,28.782 211.654,29.109 211.796,29.387C211.86,29.512 212.048,29.539 212.113,29.663C212.137,29.71 212.521,30.93 212.653,31.455C213.045,33.015 213.415,32.886 213.677,34.463C213.939,36.035 213.641,36.157 214.631,37.416C214.698,37.501 215.365,37.678 215.693,39.457C215.752,39.779 215.758,40.11 215.806,40.434C216.09,42.354 216.798,42.023 217.457,43.525C217.578,43.8 217.626,44.11 217.783,44.367C217.867,44.504 218.075,44.533 218.158,44.671C218.365,45.017 218.672,46.291 218.707,46.434C219.185,48.414 219.63,48.153 220.112,48.797C220.382,49.158 220.684,50.293 220.72,50.428C220.765,50.596 221.064,51.719 221.624,52.408C221.764,52.58 222.011,52.641 222.15,52.812L194.179,100.84C194.354,100.989 194.414,101.246 194.59,101.395C194.799,101.573 195.088,101.635 195.307,101.801C195.453,101.913 195.513,102.121 195.67,102.217C195.918,102.369 196.248,102.357 196.485,102.524C196.644,102.636 196.625,102.928 196.798,103.015C196.925,103.079 197.074,102.826 197.204,102.884C197.311,102.933 197.209,103.066 198.357,103.792C198.574,103.929 198.697,104.006 201.385,104.828C201.725,104.932 202.517,105.453 208.476,105.173C210.814,105.063 212.379,104.003 212.671,103.804C212.908,103.643 213.201,103.566 213.421,103.381C213.584,103.245 213.557,102.879 214.501,102.502C214.781,102.39 215.106,102.39 215.365,102.235C215.514,102.147 215.508,101.89 215.662,101.811C216.185,101.54 216.799,101.483 217.326,101.221C217.493,101.138 217.547,100.914 217.694,100.8C217.911,100.634 218.198,100.569 218.406,100.39C218.583,100.238 218.659,99.992 218.825,99.827C218.992,99.661 219.24,99.586 219.395,99.408C219.574,99.203 219.633,98.914 219.803,98.703C219.927,98.55 220.142,98.489 220.263,98.334C220.426,98.122 220.457,97.821 220.638,97.625C220.892,97.35 221.921,97.173 222.197,95.43C222.568,93.085 222.805,93.155 223.216,91.468C223.33,91.001 223.359,84.636 223.037,83.619C222.912,83.225 222.661,82.881 222.525,82.491C222.341,81.966 222.098,79.794 222.047,79.646C221.871,79.137 220.629,76.822 220.411,76.56C220.098,76.183 219.748,76.379 219.312,74.561C218.663,71.852 216.962,70.487 216.539,69.478C216.424,69.203 216.391,68.893 216.237,68.638C216.15,68.493 215.92,68.47 215.841,68.32C215.563,67.792 215.459,67.185 215.191,66.652C215.12,66.51 214.92,66.467 214.841,66.329C214.632,65.968 214.296,64.721 214.258,64.579C213.791,62.846 213.498,63.006 212.903,62.196C212.744,61.98 212.643,61.726 212.531,61.482C212.406,61.209 212.345,60.905 212.191,60.647C212.111,60.512 211.923,60.462 211.843,60.326C211.373,59.534 211.663,59.432 211.215,58.639C211.135,58.498 210.93,58.462 210.846,58.324C210.372,57.545 210.665,57.434 210.209,56.637C210.13,56.5 209.93,56.464 209.851,56.328C209.623,55.937 209.324,54.707 209.289,54.563C208.629,51.844 207.966,52.001 207.653,50.404C207.166,47.922 207.562,47.405 206.52,47.355C205.049,47.284 205.428,47.966 205.396,49.433C205.389,49.756 205.464,50.097 205.355,50.401C205.297,50.563 204.979,50.538 204.939,50.705C204.892,50.902 205.185,51.078 205.145,51.276C205.111,51.447 204.837,51.469 204.755,51.622C204.611,51.89 204.658,52.241 204.49,52.495C204.386,52.652 204.063,52.592 203.996,52.768C203.927,52.952 204.224,53.141 204.174,53.332C204.131,53.495 203.854,53.489 203.769,53.634C203.311,54.413 203.654,54.547 203.148,55.299C203.049,55.446 202.829,55.478 202.73,55.625C202.568,55.868 202.557,56.195 202.388,56.433C202.279,56.588 202.004,56.59 201.925,56.762C201.865,56.893 202.107,57.044 202.048,57.176C201.966,57.36 201.695,57.389 201.573,57.55C200.982,58.327 200.568,59.335 200.5,59.5C200.071,60.544 199.853,60.414 199.445,61.471C199.337,61.751 199.287,62.059 199.133,62.318C199.049,62.458 198.831,62.485 198.753,62.629C198.609,62.894 198.663,63.247 198.493,63.497C198.387,63.654 198.053,63.582 197.988,63.76C197.917,63.952 198.229,64.142 198.183,64.341C198.144,64.504 197.866,64.497 197.78,64.641C197.627,64.9 197.679,65.259 197.495,65.497C197.362,65.668 197.047,65.605 196.907,65.769C196.337,66.434 196.692,66.611 196.185,67.312C196.083,67.452 195.88,67.503 195.793,67.653C195.337,68.435 195.637,68.551 195.158,69.324C195.072,69.463 194.869,69.503 194.783,69.643C194.628,69.896 194.626,70.229 194.454,70.473C194.342,70.633 194.088,70.647 193.968,70.802C193.883,70.911 194.033,70.987 193.193,72.35C192.373,73.679 192.991,73.938 192.1,75.205C192.083,75.23 191.554,75.597 191.227,76.369C190.491,78.107 190.857,80.21 190.169,81.368C190.1,81.485 189.89,81.474 189.834,81.597C189.741,81.807 189.88,81.84 189.137,84.383C189,84.85 188.437,86.778 188.81,90.463C188.956,91.906 189.334,91.789 189.695,93.453C189.962,94.685 190.095,94.619 190.5,95.5C190.626,95.776 190.636,96.099 190.785,96.363C190.866,96.505 191.088,96.528 191.163,96.673C191.435,97.197 191.535,97.798 191.803,98.324C191.884,98.484 192.086,98.55 192.193,98.694C192.358,98.915 192.433,99.198 192.612,99.407C192.761,99.581 193.002,99.655 193.16,99.821C193.415,100.089 193.311,100.153 193.579,100.421C193.839,100.681 193.909,100.57 194.179,100.84L222.15,52.812Z" style="fill:#6ebae5;fill-opacity:0.98;"/><path id="reflection" d="M205.858,110.119C205.85,109.745 206.144,109.835 206.135,109.46C206.12,108.794 205.805,108.945 205.83,108.9C206.291,108.072 215.583,110.027 223.342,101.253C223.449,101.132 224.559,99.878 225.271,100.659C226.226,101.708 223.033,107.444 217.518,109.546C210.402,112.258 206.417,110.301 205.858,110.119Z" style="fill:#fafcfe;fill-opacity:1;"/><path id="h" d="M110.947,109.998C111.111,109.809 111.368,109.716 111.531,109.527C111.739,109.287 111.716,109.278 112.709,107.591C112.781,107.468 112.96,107.417 113.002,107.282C113.06,107.097 112.929,106.885 112.99,106.701C113.032,106.571 113.224,106.539 113.285,106.417C113.828,105.324 114.437,102.823 114.515,102.504C116.14,95.834 115.232,62.507 115.232,62.506C115.199,62.16 115.035,61.837 114.99,61.492C114.942,61.119 114.818,44.749 114.813,44.492C114.314,20.276 115.553,19.948 114.29,16.576C111.961,10.36 110.407,10.441 109.855,10.017C109.695,9.894 109.624,9.674 109.458,9.558C107.955,8.505 104.886,8.158 104.873,8.147C104.674,7.984 104.585,6.745 104.722,6.646C105.495,6.088 107.219,6.152 107.439,6.16C108.164,6.187 108.149,6.443 131.5,6.404C137.162,6.395 139.75,5.66 139.552,7.508C139.458,8.384 138.166,8.249 136.344,9.252C135.021,9.98 134.907,9.808 133.866,10.857C133.313,11.414 133.519,11.544 133.021,12.129C132.885,12.289 132.656,12.355 132.524,12.519C132.352,12.732 132.29,13.018 132.127,13.239C132.013,13.393 131.81,13.469 131.705,13.628C130.095,16.061 130.429,20.33 130.429,22.5C130.428,55.869 130.39,55.94 130.714,56.357C131.64,57.553 131.954,56.942 136.5,56.942C149.835,56.942 163.171,56.942 176.506,56.943C177.993,56.937 178.074,57.18 178.627,56.708C179.21,56.21 179.324,56.254 179.438,55.488C179.512,54.991 179.455,22.379 179.45,19.5C179.442,14.349 178.26,14.534 176.424,11.558C175.654,10.309 175.386,10.556 174.816,10.092C174.656,9.962 174.571,9.752 174.403,9.633C173.7,9.136 171.824,8.455 171.592,8.371C171.441,8.316 169.903,7.757 170.646,6.599C170.985,6.069 174.19,6.3 174.498,6.323C175.843,6.42 176.115,6.404 191.5,6.404C201.755,6.405 201.758,6.066 202.629,6.25C203.641,6.463 203.476,7.369 203.455,7.486C203.358,8.017 203.177,7.884 200.503,9.503C199.393,10.176 197.693,12.627 197.365,13.432C197.113,14.05 197.078,14.018 196.751,14.615C193.611,20.35 196.206,32.437 193.398,40.467C192.717,42.415 192.887,42.454 192.223,44.419C191.572,46.344 187.845,53.706 185.709,56.649C183.7,59.417 184.077,59.74 181.616,61.702C181.502,61.793 181.462,61.97 181.33,62.032C180.662,62.347 180.62,62.305 158.5,62.305C131.512,62.305 131.36,62.233 130.843,62.792C130.367,63.307 130.429,63.424 130.429,88.5C130.429,99.019 130.091,103.139 132.237,106.643C134.162,109.787 134.272,110.697 138.452,112.569C139.987,113.257 140.241,114.937 137.558,114.908C122.463,114.744 122.484,114.69 107.409,114.935C105.76,114.961 105.782,115.081 105.648,115.037C105.523,114.996 104.025,114.503 104.774,113.646C104.938,113.458 105.302,113.645 105.51,113.506C105.671,113.399 105.606,113.095 105.766,112.987C106.021,112.814 106.367,112.841 106.655,112.73C108.202,112.137 108.122,111.989 108.637,111.709C109.2,111.403 109.523,111.742 110.947,109.998Z" style="fill:#193b69;fill-opacity:0.99;"/></g><g id="text"><path d="M199.574,140.227C199.272,140.279 199.054,139.763 198.752,139.815C198.395,139.877 197.716,142.333 197.653,142.561C196.787,145.693 196.033,146.078 194.519,150.507C194.144,151.604 192.957,153.704 192.482,155.494C192.178,156.642 192.382,156.723 191.657,157.675C191.245,158.217 191.249,158.343 190.561,158.281C189.637,158.196 190.063,157.628 188.502,153.499C188.263,152.869 188.148,152.94 187.884,152.325C187.643,151.761 187.522,151.15 187.272,150.589C187.218,150.467 187.041,150.429 186.986,150.307C186.41,149.03 186.738,148.929 186.15,147.649C185.288,145.771 185.313,145.779 185.227,145.624C185.157,145.496 184.987,145.435 184.933,145.3C184.811,144.999 184.837,144.994 183.551,141.478C183.333,140.881 182.396,139.265 181.488,136.504C181.138,135.441 181.023,135.508 180.612,134.446C180.503,134.164 180.414,133.872 180.266,133.608C180.194,133.48 180.016,133.424 179.961,133.287C179.751,132.768 179.475,131.282 177.668,127.414C177.542,127.144 177.468,126.849 177.313,126.595C177.227,126.453 177.045,126.389 176.958,126.248C176.804,125.998 176.743,125.699 176.603,125.44C175.881,124.113 174.496,124.071 174.639,123.449C174.922,122.22 175.187,122.254 176.453,122.268C177.218,122.277 177.198,122.44 180.5,122.432C180.737,122.431 183.217,122.425 183.456,122.589C184.343,123.199 183.977,123.407 183.925,124.486C183.843,126.193 185.051,129.212 185.208,129.604C185.302,129.839 186,131.582 186.421,132.533C187.517,135.008 187.388,135.041 188.387,137.548C189.144,139.449 189.193,139.414 189.655,141.427C189.841,142.234 189.601,142.529 190.426,142.663C191.69,142.868 191.725,142.542 192.115,141.331C192.604,139.817 192.392,139.759 193.047,138.303C193.957,136.284 194.901,133.733 195.05,133.331C195.126,133.127 196.001,131.352 195.487,129.504C195.187,128.425 195.002,128.518 194.645,127.44C194.548,127.15 194.483,126.845 194.337,126.576C194.262,126.439 194.057,126.397 193.999,126.252C193.939,126.102 194.077,125.915 194.012,125.767C193.944,125.61 193.746,125.548 193.635,125.416C193.148,124.835 193.24,124.748 192.614,124.42C190.862,123.5 191.479,122.269 193.455,122.281C193.943,122.284 194.566,122.45 197.5,122.431C199.678,122.417 199.744,122.098 200.451,122.588C201.347,123.208 201,123.419 200.835,124.501C200.488,126.783 204.372,134.442 205.357,137.549C206.243,140.343 206.4,140.271 206.476,140.512C206.566,140.796 206.564,141.122 206.732,141.368C206.871,141.574 207.168,141.617 207.346,141.791C207.832,142.264 207.769,142.63 208.382,142.342C208.705,142.19 209.627,138.697 211.511,134.505C212.353,132.63 212.051,132.537 212.887,130.668C212.96,130.505 212.99,130.523 213.833,128.646C215.742,124.396 213.858,123.054 215.489,122.469C216.038,122.271 216.841,122.605 221.516,122.335C221.666,122.327 223.045,122.247 223.37,122.638C223.978,123.368 223.28,124.209 223.194,124.313C223.07,124.463 222.824,124.466 222.686,124.605C222.314,124.977 221.857,125.597 221.791,125.688C221.19,126.503 219.951,130.008 219.322,131.41C217.625,135.194 217.874,135.274 217.042,137.272C216.983,137.415 216.808,137.48 216.73,137.613C216.013,138.849 215.343,141.105 215.25,141.418C214.815,142.882 214.045,143.872 213.475,145.491C211.681,150.582 211.243,150.398 210.295,153.43C209.619,155.593 209.449,155.512 208.58,157.594C208.298,158.269 208.256,158.36 207.523,158.327C206.338,158.274 206.844,157.702 206.566,156.469C206.398,155.722 204.147,150.136 203.754,149.384C203.556,149.003 203.331,148.573 201.698,144.426C201.469,143.844 201.479,143.847 200.327,140.609C200.076,140.482 199.825,140.355 199.574,140.227Z" style="fill:#193b69;fill-opacity:0.98;"/><path d="M259.434,141.456C259.974,139.611 260.069,139.66 260.196,139.371C261.08,137.377 260.843,136.859 262.162,134.346C262.243,134.191 262.691,133.337 263.058,132.349C264.036,129.717 261.177,125.414 260.391,124.561C259.608,123.712 259.048,123.647 259.747,122.724C260.336,121.946 260.497,122.259 261.478,122.312C267.043,122.61 267.082,122.228 267.516,122.441C267.751,122.556 267.765,122.903 267.925,123.11C268.397,123.72 268.421,123.715 268.457,124.499C268.473,124.833 268.429,125.169 268.453,125.503C268.597,127.53 271.109,132.855 271.321,133.56C271.415,133.872 272.087,136.105 272.779,137.368C272.85,137.497 273.019,137.561 273.073,137.697C273.168,137.936 273.142,137.922 274.047,140.754C274.477,142.103 274.129,142.741 275.531,142.642C276.386,142.582 276.265,142.326 276.466,141.483C276.542,141.166 277.063,138.987 277.758,137.617C278.271,136.606 278.193,136.595 278.585,135.529C279.743,132.381 280.032,132.518 281.153,129.373C282.746,124.901 282.072,123.028 282.558,122.605C282.778,122.414 285.264,122.43 285.5,122.431C289.565,122.456 290.472,121.921 291.093,122.812C291.552,123.469 291.621,123.607 291.031,124.13C290.725,124.402 290.275,124.472 289.969,124.744C289.703,124.98 289.728,125.001 287.884,128.674C286.264,131.9 286.722,132.076 285.208,135.368C285.149,135.495 285,135.567 284.947,135.696C284.713,136.266 284.57,136.871 284.352,137.448C283.984,138.421 283.961,138.406 279.39,149.463C279.186,149.958 276.86,155.583 276.84,155.653C276.183,157.913 276.558,158.429 275.497,158.443C274.7,158.454 274.708,158.296 274.425,157.567C274.01,156.497 273.95,156.539 273.667,155.441C272.983,152.79 272.089,152.084 270.506,147.498C270.284,146.858 270.201,146.914 269.91,146.319C269.505,145.493 269.709,145.426 269.272,144.598C269.205,144.473 269.047,144.409 268.99,144.28C268.936,144.159 268.945,144.157 268.281,141.595C267.894,140.105 268.047,139.319 266.608,139.829C265.956,140.06 265.594,141.371 265.552,141.525C265.251,142.618 265.284,142.612 264.776,143.627C264.64,143.899 264.553,144.193 264.453,144.48C264.345,144.787 263.352,147.617 263.072,148.303C263.016,148.439 262.845,148.499 262.774,148.627C262.627,148.891 262.538,149.184 262.427,149.465C262.178,150.093 262.095,150.03 261.85,150.647C260.895,153.05 261.117,153.107 261.025,153.31C260.969,153.433 260.792,153.472 260.737,153.595C260.491,154.156 260.371,154.766 260.136,155.331C259.877,155.952 259.775,155.894 259.597,156.558C259.273,157.766 259.757,158.383 258.495,158.402C257.419,158.417 257.758,157.901 257.249,156.689C257.184,156.534 257.007,156.444 256.94,156.29C256.819,156.013 256.789,155.705 256.696,155.417C255.984,153.218 254.902,150.789 254.726,150.395C253.767,148.242 249.5,137.559 249.084,136.687C247.619,133.613 247.877,133.532 247.08,131.688C247.024,131.558 246.87,131.487 246.812,131.358C246.56,130.8 246.414,130.198 246.159,129.642C246.102,129.517 245.941,129.46 245.885,129.336C245.447,128.364 245.873,128.139 244.733,126.377C244.635,126.225 243.792,124.921 243.405,124.556C243.257,124.416 242.991,124.437 242.858,124.282C242.775,124.186 242.138,123.443 242.708,122.701C243.052,122.252 244.334,122.316 244.479,122.323C250.164,122.606 250.398,122.104 251.094,122.939C251.449,123.364 251.295,123.425 251.377,125.509C251.437,127.061 253.264,130.931 253.49,131.504C255.315,136.12 255.387,136.082 255.53,136.488C255.801,137.261 257.655,142.281 257.691,142.299C257.921,142.417 258.219,142.017 258.449,142.135C258.777,141.909 259.106,141.682 259.434,141.456Z" style="fill:#193b69;fill-opacity:0.99;"/><path d="M1.424,122.342C6.366,122.464 7.015,122.441 7.501,122.424C7.741,122.415 10.363,122.323 10.512,122.482C11.037,123.046 10.436,124.293 10.369,124.434C9.809,125.597 9.233,125.485 9.225,129.499C9.221,131.549 9.142,135.004 9.482,135.51C9.642,135.748 9.97,135.81 10.206,135.974C10.738,136.343 10.789,136.321 19.5,136.31C19.732,136.31 22.165,136.307 22.399,136.193C23.863,135.478 23.536,135.131 23.544,133.501C23.57,128.462 23.665,126.221 22.507,124.497C22.261,124.13 21.709,123.89 21.695,123.448C21.645,121.805 22.613,122.61 28.501,122.422C28.737,122.414 31.277,122.333 31.458,122.557C31.525,122.641 31.437,124.127 31.306,124.404C31.294,124.428 30.81,124.447 30.257,126.43C29.893,127.737 29.926,127.751 29.928,147.5C29.928,148.056 29.929,153.09 30.753,154.398C30.842,154.54 31.25,154.602 31.426,155.517C31.823,157.58 30.608,156.897 28.507,156.875C22.746,156.813 22.597,157.056 22.594,157.055C21.895,156.928 22.276,155.581 22.311,155.456C22.367,155.261 23.491,154.058 23.537,150.5C23.63,143.156 23.645,143.127 23.363,142.558C23.263,142.356 23.016,142.269 22.85,142.116C22.182,141.5 22.037,141.366 11.503,141.558C8.708,141.609 9.23,142.718 9.224,145.5C9.216,149.913 9.102,153.122 9.833,154.37C9.911,154.504 10.112,154.531 10.194,154.663C10.691,155.469 10.625,156.913 10.361,157.011C9.921,157.176 9.907,156.814 4.496,156.871C3.788,156.879 3.079,156.853 2.373,156.901C1.648,156.95 1.378,157.247 1.347,156.692C1.329,156.37 1.621,154.93 1.763,154.639C2.074,154.003 2.742,154.042 2.757,149.501C2.829,128.303 3.04,128.26 2.504,126.499C1.896,124.503 1.618,124.636 1.575,124.462C1.534,124.297 1.564,124.305 1.424,122.342Z" style="fill:#193b69;fill-opacity:0.99;"/><path d="M126.49,138.481C127.486,138.345 127.457,138.249 128.461,138.213C128.781,138.202 131.035,138.121 132.342,137.248C132.892,136.88 133.666,135.818 133.766,135.681C134,135.36 134.158,135.439 134.449,134.482C135.625,130.605 132.094,127.964 128.482,127.792C124.401,127.597 124.484,128.804 124.483,131.5C124.48,138.864 124.142,138.847 124.181,139.485C124.515,144.994 124.399,144.983 124.491,150.5C124.548,153.956 126.039,155.779 126.045,156.275C126.057,157.269 125.593,156.948 124.608,156.899C117.254,156.532 117.144,157.44 116.662,157.025C116.487,156.874 116.759,156.565 116.74,156.334C116.717,156.053 116.497,155.791 116.54,155.513C116.635,154.891 117.525,154.893 117.757,152.526C118.088,149.139 117.846,130.416 117.821,128.493C117.774,124.87 117.136,124.805 116.724,124.382C115.878,123.511 115.516,123.205 116.506,122.508C116.78,122.315 119.26,122.41 119.499,122.419C125.011,122.63 128.894,121.852 134.525,123.415C138.01,124.382 138.561,125.346 138.601,125.382C138.78,125.544 139.031,125.616 139.199,125.79C139.371,125.969 139.437,126.231 139.599,126.418C139.731,126.571 139.95,126.637 140.071,126.798C140.577,127.473 141.006,128.507 141.071,128.664C141.096,128.724 141.689,130.975 141.528,133.502C141.424,135.143 141.635,135.219 140.781,136.629C139.962,137.981 140.112,138.04 140.025,138.144C139.89,138.306 139.647,138.348 139.502,138.502C139.339,138.675 139.304,138.955 139.118,139.104C138.709,139.43 138.197,139.602 137.761,139.892C137.608,139.993 137.517,140.172 137.363,140.271C136.997,140.505 135.92,140.645 135.8,141.587C135.598,143.171 137.482,144.631 138.431,146.541C138.719,147.121 141.713,151.834 142.304,152.639C142.723,153.21 142.73,153.182 143.17,153.749C143.337,153.962 143.4,154.249 143.583,154.448C143.725,154.603 143.989,154.617 144.119,154.783C144.472,155.236 144.7,157.052 144.431,157.142C144.183,157.225 143.939,156.949 143.678,156.918C143.307,156.873 142.931,156.924 142.557,156.918C142.311,156.913 140.247,156.878 139.49,156.859C136.895,156.791 136.77,156.099 136.342,155.648C136.202,155.5 135.981,155.434 135.864,155.266C135.545,154.806 135.356,154.265 135.054,153.793C134.654,153.166 134.266,153.147 133.531,151.482C133.25,150.847 133.153,150.926 132.803,150.345C132.505,149.85 132.312,149.296 132.018,148.798C131.677,148.22 131.384,148.261 130.55,146.472C130.062,145.426 128.441,143.21 127.607,141.437C127.04,140.231 126.84,140.385 126.807,140.277C126.729,140.02 126.89,139.735 126.843,139.47C126.782,139.125 126.551,138.825 126.49,138.481Z" style="fill:#193b69;fill-opacity:0.98;"/><path d="M379.024,135.503C378.967,135.856 378.422,137.586 378.64,140.503C379.25,148.661 378.099,150.895 379.559,154.476C379.639,154.671 380.505,156.796 380.315,157.004C380.203,157.126 378.924,156.91 377.511,156.88C372.813,156.781 372.82,156.921 372.413,156.909C372.285,156.906 371.035,156.869 370.957,156.248C370.917,155.936 371.494,154.658 371.554,154.525C372.412,152.624 372.341,152.468 372.341,146.5C372.342,127.103 372.508,126.077 371.351,124.559C371.247,124.422 371.007,124.43 370.913,124.286C370.407,123.513 370.819,122.939 370.886,122.846C371.42,122.103 371.568,122.331 372.481,122.348C382.593,122.536 389.124,122.159 392.735,125.205C396.189,128.119 395.828,131.12 395.955,132.499C396.006,133.056 396.546,135.657 393.695,138.683C393.016,139.405 392.914,139.743 391.443,140.405C388.82,141.586 391.039,143.652 391.093,143.734C391.943,145.03 391.763,145.123 392.654,146.397C393.295,147.315 393.205,147.345 393.795,148.319C393.888,148.473 394.077,148.549 394.178,148.699C394.336,148.935 394.39,149.233 394.561,149.461C394.674,149.61 394.919,149.638 395.007,149.803C395.07,149.921 394.898,150.079 394.954,150.2C395.033,150.37 395.258,150.43 395.369,150.582C396.441,152.049 396.194,152.201 397.326,153.625C398.143,154.653 398.209,154.584 398.274,154.676C398.857,155.505 398.738,156.637 398.72,156.81C398.68,157.185 398.499,156.989 397.624,156.925C397.299,156.901 393.059,156.881 392.447,156.742C390.54,156.31 388.656,152.814 388.51,152.494C388.227,151.876 388.168,151.936 387.78,151.354C387.581,151.056 386.24,149.045 385.52,147.489C384.756,145.838 384.403,146.057 383.641,144.419C383.167,143.4 383.037,143.483 382.556,142.467C381.403,140.03 380.966,140.297 380.937,140.068C380.907,139.828 381.294,139.713 381.363,139.481C381.469,139.124 381.336,138.724 381.442,138.367C385.944,138.004 386.159,137.469 387.568,136.569C388.694,135.849 389.169,133.237 388.682,131.439C388.412,130.443 388.079,130.427 387.877,130.193C387.709,129.999 387.644,129.724 387.456,129.55C387.261,129.368 386.976,129.311 386.761,129.154C386.605,129.04 386.515,128.847 386.354,128.742C384.748,127.693 380.425,127.389 379.42,128.422C378.919,128.936 379.027,132.258 379.024,135.503Z" style="fill:#193b69;fill-opacity:0.98;"/><path d="M298.037,150.211C297.286,151.727 297.326,151.74 297.016,153.415C296.948,153.782 296.784,154.139 296.789,154.513C296.793,154.852 297.09,155.162 297.042,155.498C297.02,155.655 296.876,156.687 295.578,156.827C293.873,157.01 293.858,156.558 289.538,157.021C288.821,157.098 288.666,157.379 288.287,156.76C288.056,156.382 287.571,156.017 287.667,155.585C287.717,155.365 288.144,155.757 289.695,153.625C291.137,151.642 291.502,149.568 291.861,148.655C291.911,148.528 292.07,148.467 292.128,148.343C293.658,145.057 293.248,144.9 294.802,141.632C295.283,140.619 295.248,140.623 295.734,139.593C295.791,139.471 295.967,139.422 296.004,139.293C296.06,139.101 295.936,138.883 295.996,138.691C296.107,138.337 297.289,135.715 297.405,135.458C297.444,135.371 301.382,126.004 301.535,125.511C301.629,125.208 302.615,122.022 302.836,121.758C302.989,121.575 303.306,121.608 303.478,121.444C303.603,121.324 303.522,121.051 303.67,120.962C304.312,120.573 304.171,121.128 304.755,122.285C304.834,122.441 305.066,122.505 305.107,122.675C305.149,122.851 304.941,123.024 304.974,123.202C304.995,123.312 305.125,123.233 305.558,124.473C305.725,124.95 305.802,124.918 307.869,130.347C308.098,130.946 308.723,132.203 308.802,132.362C308.867,132.492 309.033,132.558 309.087,132.693C309.844,134.581 309.632,134.64 310.472,136.512C311.662,139.164 311.607,139.186 311.71,139.416C311.766,139.54 311.965,139.568 312.005,139.698C312.066,139.896 311.929,140.121 311.987,140.32C312.203,141.063 312.746,142.205 312.821,142.365C313.108,142.969 313.161,142.926 313.398,143.548C313.505,143.831 313.593,144.124 313.741,144.388C313.813,144.517 313.991,144.571 314.047,144.707C314.817,146.596 314.604,146.66 315.421,148.533C315.543,148.812 315.605,149.118 315.749,149.387C315.816,149.513 315.98,149.569 316.043,149.697C316.187,149.989 316.015,150.058 317.589,153.454C318.222,154.819 318.61,154.449 319.104,154.912C319.275,155.072 319.293,155.347 319.438,155.532C319.681,155.842 320.196,155.996 320.256,156.385C320.291,156.611 319.781,156.439 319.599,156.578C319.457,156.686 319.536,157.003 319.367,157.063C319.231,157.11 319.236,156.931 317.575,156.909C311.864,156.833 311.836,156.967 311.386,156.758C311.304,156.72 310.667,155.645 310.651,155.5C310.616,155.185 311.044,154.404 310.457,152.515C310.404,152.344 310.388,152.293 309.574,150.461C308.819,148.762 307.712,149.119 301.501,148.937C298.409,148.846 298.244,150.046 298.037,150.211L302.033,140.312C301.929,140.556 300.871,143.026 300.905,143.428C300.917,143.566 301.14,143.582 301.234,143.684C301.377,143.84 301.418,144.108 301.611,144.195C301.847,144.302 305.432,144.201 305.434,144.201C305.583,144.163 305.664,143.995 305.782,143.897C306.802,143.048 306.69,142.85 306.211,141.605C306.062,141.217 304.375,136.834 304.285,136.779C303.793,136.481 303.8,136.747 303.375,137.146C303.174,137.335 302.858,137.401 302.701,137.628C302.63,137.731 302.083,140.096 302.033,140.312L298.037,150.211Z" style="fill:#193b69;fill-opacity:0.98;"/><path d="M146.242,156.784C146.39,156.385 146.409,155.945 146.557,155.545C146.819,154.837 147.001,155 147.656,154.611C148.401,154.168 148.743,152.855 148.846,152.663C148.914,152.535 149.07,152.466 149.131,152.335C149.678,151.163 151.535,146.367 152.067,145.311C152.481,144.49 152.329,144.439 152.757,143.618C153.491,142.211 154.676,138.786 154.746,138.622C154.803,138.489 154.957,138.414 155.017,138.281C156.124,135.828 155.853,135.731 157.03,133.301C157.423,132.489 158.641,129.112 160.281,125.401C160.663,124.535 160.498,124.492 160.857,123.621C160.91,123.494 161.076,123.435 161.123,123.306C161.639,121.889 161.209,121.245 162.517,121.291C163.417,121.322 163.352,121.55 163.62,122.423C164.538,125.411 164.992,126.329 165.151,126.652C165.287,126.926 165.364,127.226 165.477,127.511C165.727,128.14 165.835,128.065 166.09,128.685C167.044,131.013 166.865,131.071 168.049,133.701C168.887,135.563 168.872,135.55 169.557,137.482C169.77,138.083 170.671,140.24 170.748,140.377C171.776,142.211 172.359,144.457 172.759,145.39C174.084,148.483 174.178,148.427 175.341,151.573C175.66,152.436 175.802,152.344 176.044,152.745C176.541,153.567 176.23,153.783 177.297,154.637C177.668,154.934 178.289,155.094 178.382,155.559C178.72,157.259 176.659,157.034 176.468,157.013C171.925,156.517 171.581,157.045 170.411,156.819C168.94,156.534 169.374,156 169.364,154.499C169.356,153.388 169.249,153.417 168.943,152.365C168.31,150.183 168.46,148.812 164.499,148.936C158.476,149.126 157.332,148.542 156.534,150.517C154.715,155.012 155.915,155.362 155.265,156.288C154.722,157.062 152.821,156.852 152.503,156.851C146.988,156.843 147.012,157.319 146.548,157.208C146.378,157.168 146.412,156.824 146.242,156.784ZM160.105,141.336C160.032,141.755 159.704,142.103 159.632,142.522C159.436,143.65 160.443,144.118 160.582,144.183C160.638,144.209 164.346,144.282 164.427,144.245C164.563,144.184 165.596,143.713 165.249,142.57C165.197,142.402 164.963,142.504 164.364,140.552C164.031,139.463 164.047,139.471 163.717,138.387C163.24,136.817 163.256,136.803 163.201,136.758C163.181,136.742 161.744,136.701 161.724,136.715C161.554,136.838 161.747,136.905 161.057,139.247C161.005,139.423 160.918,139.381 160.105,141.336Z" style="fill:#193b69;fill-opacity:0.98;"/><path d="M55.386,128.858C53.921,128.035 53.912,127.637 51.499,127.585C45.386,127.454 45.221,127.581 44.795,127.908C44.031,128.494 44.222,132.532 44.227,133.504C44.231,134.191 43.945,136.271 46.509,136.312C51.196,136.386 52.171,136.088 52.641,135.944C53.734,135.61 53.5,135.192 54.571,134.797C54.744,134.733 55.513,135.117 55.622,135.418C55.737,135.731 55.948,142.119 55.442,142.447C55.362,142.498 53.883,142.306 53.659,142.187C53.522,142.114 53.524,141.887 53.393,141.802C53.268,141.721 51.353,140.937 49.491,140.964C45.778,141.02 44.566,140.982 44.277,142.45C44.206,142.813 44.204,150.316 44.255,150.57C44.556,152.091 45.973,151.902 51.503,151.862C55.886,151.83 55.353,150.324 56.562,149.838C58.179,149.187 57.36,155.689 57.049,156.157C56.46,157.04 55.662,156.856 41.5,156.867C36.979,156.871 36.984,157.115 36.599,157.041C35.704,156.868 36.561,154.738 36.635,154.553C37.406,152.635 37.44,152.611 37.44,147.5C37.44,126.732 37.596,126.597 36.461,124.514C35.851,123.394 35.399,123.112 36.458,122.421C36.655,122.293 39.383,122.426 39.5,122.428C55.479,122.689 56.02,122.054 56.641,123.423C57.295,124.865 56.989,124.922 56.938,126.513C56.896,127.824 57.337,128.303 57.375,128.475C57.04,128.679 56.982,128.467 56.653,128.667C56.523,128.747 56.566,129.036 56.415,129.059C56.069,129.111 55.732,128.806 55.386,128.858Z" style="fill:#193b69;fill-opacity:0.98;"/><path d="M364.407,128.861C362.422,127.769 362.424,127.587 359.5,127.58C355.619,127.571 353.917,127.317 353.394,128.438C352.755,129.81 353.163,129.87 353.163,131.5C353.163,132.168 353.158,132.837 353.163,133.506C353.176,135.728 353.283,136.27 355.508,136.313C361.097,136.421 362.043,135.854 362.527,135.563C363.587,134.927 363.575,134.549 364.249,134.931C365.17,135.452 364.664,135.764 364.776,140.526C364.811,142.008 364.978,142.679 363.507,142.45C362.528,142.297 362.676,142.014 362.382,141.821C360.685,140.705 355.545,141.028 355.462,141.031C355.303,141.036 353.996,141.079 353.548,141.549C352.445,142.706 353.008,142.908 353.163,144.5C353.174,144.617 353.129,150.297 353.189,150.596C353.477,152.036 354.552,151.915 360.504,151.861C363.914,151.83 363.851,150.995 364.554,150.604C364.857,150.706 365.2,150.363 365.504,150.465C365.728,150.54 365.733,150.886 365.898,151.054C366.076,151.235 366.34,151.316 366.518,151.497C366.292,153.467 366.13,156.001 365.508,156.512C365.007,156.924 364.909,156.74 348.498,156.869C345.834,156.89 345.827,157.105 345.614,157.015C344.209,156.421 345.021,155.96 345.617,154.551C346.543,152.358 346.468,152.098 346.468,146.5C346.469,126.935 346.633,126.809 345.451,124.518C344.976,123.596 344.58,123.592 344.984,122.915C345.433,122.162 345.589,122.347 346.477,122.348C354.782,122.355 354.778,122.432 355.5,122.432C364.589,122.432 365.107,122.193 365.472,123.515C365.516,123.674 366.006,125.45 366.011,125.514C366.033,125.849 365.856,126.172 365.841,126.508C365.826,126.874 365.831,127.25 365.922,127.605C366.001,127.915 366.263,128.159 366.343,128.47L364.407,128.861Z" style="fill:#193b69;fill-opacity:0.98;"/><path d="M95.041,148.964C95.188,149.151 95.322,149.348 95.469,149.536C96.203,150.479 96.794,150.455 97.318,150.789C98.829,151.75 98.823,151.781 100.569,152.181C102.96,152.729 107.28,152.24 109.341,151.148C109.843,150.882 109.773,150.771 110.504,150.51C110.641,150.461 112.151,149.922 112.228,149.938C113.014,150.102 112.959,154.672 112.434,155.463C112.2,155.815 111.786,156.44 107.431,157.151C98.736,158.57 95.826,156.623 93.437,155.62C92.005,155.019 90.488,153.326 89.475,152.522C89.177,152.285 87.366,150.159 86.638,148.429C86.522,148.154 86.42,147.87 86.27,147.612C85.2,145.765 85.516,145.658 85.084,143.565C84.463,140.566 84.593,140.561 84.761,137.516C84.874,135.464 85.014,135.502 85.561,133.52C85.863,132.427 85.993,132.498 86.435,131.468C86.554,131.191 86.651,130.901 86.806,130.643C86.887,130.508 87.057,130.441 87.133,130.303C88.074,128.581 87.977,128.534 88.709,127.683C88.768,127.615 91.433,124.986 91.716,124.786C92.42,124.289 92.51,124.505 93.257,124.051C93.855,123.688 93.79,123.613 94.43,123.351C99.786,121.161 102.91,121.262 110.429,122.786C113.244,123.356 112.815,125.845 112.822,127.532C112.828,128.998 112.968,129.585 111.506,129.441C110.486,129.34 110.679,128.931 109.557,128.397C108.897,128.084 105.719,126.575 100.479,127.376C99.953,127.456 97.345,127.855 94.703,130.684C93.475,131.999 90.903,136.385 91.594,141.487C92.337,146.967 94.796,148.679 95.041,148.964Z" style="fill:#193b69;fill-opacity:0.98;"/><path d="M318.018,128.789C318.004,128.645 317.705,128.647 317.691,128.502C317.683,128.425 317.697,128.427 317.894,127.551C318.619,124.334 318.195,124.126 319.138,123.143C319.288,122.986 319.372,122.749 319.565,122.65C319.991,122.432 323.185,122.432 323.5,122.432C340.375,122.432 340.512,122.349 341.13,122.94C341.781,123.563 342.915,129.972 342.172,130.034C341.894,130.057 341.763,129.631 341.503,129.528C341.209,129.411 340.846,129.536 340.564,129.393C340.407,129.314 340.444,129.05 340.317,128.929C339.046,127.713 336.821,127.612 336.497,127.598C334.48,127.507 333.496,127.577 333.309,129.479C333.295,129.624 333.296,149.737 333.309,150.503C333.38,154.824 334.974,154.614 334.628,156.64C334.521,157.263 333.873,156.836 329.5,156.868C325.841,156.895 325.486,157.275 325.405,156.593C325.22,155.029 326.209,154.642 326.523,153.507C327.014,151.733 326.842,151.698 326.78,130.496C326.773,128.238 326.757,127.608 324.497,127.577C320.236,127.519 319.587,129.556 319.19,130.013C318.799,129.605 318.409,129.197 318.018,128.789Z" style="fill:#193b69;fill-opacity:0.98;"/><path d="M81.531,150.563C81.825,150.684 82.191,150.449 82.485,150.57C82.582,150.61 82.552,150.639 83.405,151.514C83.166,154.247 83.241,154.248 83.205,154.484C82.806,157.053 82.107,156.865 79.501,156.867C64.685,156.878 64.695,156.951 63.408,156.903C61.703,156.839 61.906,156.103 62.546,154.518C63.298,152.652 63.329,152.628 63.329,147.5C63.33,128.52 63.5,126.105 62.376,124.543C62.278,124.408 62.033,124.432 61.942,124.291C61.439,123.512 61.838,122.938 61.905,122.843C62.521,121.957 63.142,122.66 69.513,122.353C73.298,122.171 70.726,124.476 70.411,125.471C69.945,126.943 69.982,126.946 70.118,128.494C70.178,129.183 70.117,145.98 70.111,147.5C70.1,150.546 69.428,151.825 72.481,151.87C79.432,151.971 79.898,151.704 80.452,151.386C80.844,151.16 81.139,150.788 81.531,150.563Z" style="fill:#193b69;fill-opacity:0.97;"/><path d="M364.407,128.861L366.343,128.47C366.348,129.815 366.841,130.588 365.521,130.372C364.482,130.202 364.739,129.851 364.407,128.861Z" style="fill:#163966;fill-opacity:0.36;"/><path d="M55.386,128.858C55.732,128.806 56.069,129.111 56.415,129.059C56.566,129.036 56.523,128.747 56.653,128.667C56.982,128.467 57.04,128.679 57.375,128.475C57.34,129.784 57.821,130.534 56.532,130.324C55.518,130.159 55.755,129.825 55.386,128.858Z" style="fill:#163864;fill-opacity:0.35;"/><path d="M364.554,150.604C364.95,150.446 365.156,149.961 365.552,149.803C366.244,149.527 366.441,150.431 366.461,150.522C366.53,150.84 366.448,151.179 366.518,151.497C366.34,151.316 366.076,151.235 365.898,151.054C365.733,150.886 365.728,150.54 365.504,150.465C365.2,150.363 364.857,150.706 364.554,150.604Z" style="fill:#173967;fill-opacity:0.53;"/><path d="M81.531,150.563C82.217,150.567 81.844,149.805 82.539,149.808C82.629,149.809 82.967,149.811 83.354,150.573C83.496,150.853 83.263,151.234 83.405,151.514C82.552,150.639 82.582,150.61 82.485,150.57C82.191,150.449 81.825,150.684 81.531,150.563Z" style="fill:#173966;fill-opacity:0.58;"/><path d="M318.018,128.789C318.409,129.197 318.799,129.605 319.19,130.013C318.942,130.026 318.724,130.213 318.477,130.225C317.552,130.274 317.653,129.527 317.665,129.438C317.698,129.194 317.985,129.033 318.018,128.789Z" style="fill:#173a68;fill-opacity:0.48;"/></g></g></svg>